<svg width="50" height="48" viewBox="0 0 50 48" fill="none" xmlns="http://www.w3.org/2000/svg">
<g clip-path="url(#clip0_6061_3435)">
<path d="M57.9535 15.8345C56.952 15.1907 55.7596 14.9754 54.5964 15.2284C53.4331 15.4814 52.4378 16.1722 51.7941 17.1737L50.8329 18.669L45.2295 27.3859V1.17188C45.2295 0.524766 44.7048 0 44.0576 0H1.17285C0.525625 0 0.000976562 0.524766 0.000976562 1.17188V43.5422C0.000976562 44.1893 0.525625 44.7141 1.17285 44.7141C1.82008 44.7141 2.34473 44.1893 2.34473 43.5422V2.34375H42.8857V31.032L35.8027 42.0506C35.7232 42.1736 35.6659 42.3176 35.638 42.4613L34.7392 47.0958C34.2771 46.9273 33.7472 46.8812 33.1873 46.9857C32.3527 47.1417 31.5743 47.5317 30.8902 48.0497C30.8649 47.6562 30.8277 47.26 30.7813 46.8338C30.6516 45.6413 30.1271 44.6733 29.3045 44.1083C27.5894 42.9308 25.513 44.3155 24.8305 44.7703C22.6212 46.2435 20.7241 48.3336 19.3441 50.8148C19.0294 51.3804 19.233 52.0939 19.7986 52.4086C19.979 52.5089 20.1745 52.5566 20.3671 52.5566C20.7787 52.5566 21.178 52.3393 21.3924 51.954C22.5919 49.7973 24.2304 47.9875 26.1309 46.7204C27.4666 45.8297 27.8823 45.975 27.9778 46.0404C28.3287 46.2813 28.4259 46.8529 28.4514 47.0873C28.6028 48.4785 28.6443 49.4596 28.4702 51.2725C28.4158 51.8382 28.7753 52.3615 29.3229 52.5136C29.8708 52.6661 30.4485 52.4029 30.6938 51.8903C31.2299 50.7694 32.4066 49.5161 33.618 49.2898C33.8596 49.2448 33.9948 49.2891 34.0198 49.4186C34.0543 49.6264 34.0223 50.4204 33.9515 51.1576C33.7562 52.2294 35.0248 52.9745 35.8541 52.2873L42.886 47.2702V57.6562H2.34473V53.8547C2.34473 53.2076 1.82008 52.6828 1.17285 52.6828C0.525625 52.6828 0.000976562 53.2076 0.000976562 53.8547V58.8281C0.000976562 59.4752 0.525625 60 1.17285 60H44.0576C44.7048 60 45.2295 59.4752 45.2295 58.8281V43.8713L58.3316 23.4892L59.2928 21.9939C60.6216 19.9264 60.0209 17.1634 57.9535 15.8345ZM53.7657 18.441C54.3882 17.4725 55.7161 17.1827 56.6861 17.8061C57.6664 18.4362 57.9513 19.7463 57.3211 20.7266L56.9937 21.2361L53.4381 18.9505L53.7657 18.441ZM36.8107 48.7252L37.5398 44.9661L37.6097 44.6054L38.9184 45.4466L40.227 46.2878L39.0548 47.1241L36.8107 48.7252ZM43.0734 42.8911C43.0729 42.8918 43.0723 42.8925 43.0718 42.8932L41.9634 44.6175L38.4081 42.3322L45.0434 32.0106C45.0446 32.0088 45.0453 32.007 45.0463 32.0052L52.1707 20.9221L55.7263 23.2077L43.0734 42.8911Z" fill="#168821" fill-opacity="0.24"/>
<path d="M22.0017 5.49963H8.96191C8.31469 5.49963 7.79004 6.0244 7.79004 6.67151V21.4743C7.79004 22.1214 8.31469 22.6462 8.96191 22.6462H22.0017C22.6489 22.6462 23.1736 22.1214 23.1736 21.4743V6.67151C23.1736 6.02428 22.6489 5.49963 22.0017 5.49963ZM20.8298 7.84338V16.2308C20.1827 15.7194 19.4711 15.363 18.7822 15.1149C19.1951 14.4905 19.4363 13.7432 19.4363 12.9402C19.4363 10.7598 17.6623 8.98585 15.4818 8.98585C13.3014 8.98585 11.5274 10.7598 11.5274 12.9402C11.5274 13.7423 11.7681 14.4889 12.1801 15.1129C11.4918 15.3607 10.7805 15.7167 10.1338 16.2278V7.84338H20.8298ZM15.4823 14.5504C15.4794 14.5504 15.4751 14.5503 15.4719 14.5503C14.5883 14.5449 13.8711 13.8249 13.8711 12.9401C13.8711 12.0521 14.5937 11.3295 15.4818 11.3295C16.3699 11.3295 17.0925 12.0521 17.0925 12.9401C17.0925 13.8252 16.3747 14.5455 15.4907 14.5503C15.4882 14.5504 15.4847 14.5504 15.4823 14.5504ZM10.2436 20.3024C10.4075 19.4983 10.7563 18.8437 11.2971 18.319C12.8207 16.8409 15.3868 16.8924 15.4417 16.8938C15.4458 16.8939 15.4499 16.8937 15.4541 16.8938C15.4634 16.8938 15.4725 16.8945 15.4819 16.8945C15.4923 16.8945 15.5025 16.8938 15.5128 16.8937C15.5166 16.8935 15.5203 16.8938 15.5241 16.8937C15.5497 16.8942 18.1331 16.8424 19.6593 18.3149C20.2037 18.8401 20.5549 19.4963 20.7198 20.3024H10.2436Z" fill="#168821" fill-opacity="0.24"/>
<path d="M28.6973 10.1742H37.2959C37.9431 10.1742 38.4678 9.64943 38.4678 9.00232C38.4678 8.35521 37.9431 7.83044 37.2959 7.83044H28.6973C28.05 7.83044 27.5254 8.35521 27.5254 9.00232C27.5254 9.64943 28.05 10.1742 28.6973 10.1742Z" fill="#168821" fill-opacity="0.24"/>
<path d="M28.6973 15.3246H37.2959C37.9431 15.3246 38.4678 14.7998 38.4678 14.1527C38.4678 13.5056 37.9431 12.9808 37.2959 12.9808H28.6973C28.05 12.9808 27.5254 13.5056 27.5254 14.1527C27.5254 14.7998 28.05 15.3246 28.6973 15.3246Z" fill="#168821" fill-opacity="0.24"/>
<path d="M28.6973 20.4749H37.2959C37.9431 20.4749 38.4678 19.9501 38.4678 19.303C38.4678 18.6559 37.9431 18.1311 37.2959 18.1311H28.6973C28.05 18.1311 27.5254 18.6559 27.5254 19.303C27.5254 19.9501 28.05 20.4749 28.6973 20.4749Z" fill="#168821" fill-opacity="0.24"/>
<path d="M8.01172 26.9879V32.7542C8.01172 33.4014 8.53637 33.9261 9.18359 33.9261H37.2962C37.9434 33.9261 38.468 33.4014 38.468 32.7542V26.9879C38.468 26.3408 37.9434 25.816 37.2962 25.816H9.18359C8.53637 25.816 8.01172 26.3407 8.01172 26.9879ZM10.3555 28.1598H36.1243V31.5824H10.3555V28.1598Z" fill="#168821" fill-opacity="0.24"/>
<path d="M26.9334 38.5321C26.9334 37.885 26.4088 37.3602 25.7616 37.3602H9.59766C8.95043 37.3602 8.42578 37.885 8.42578 38.5321C8.42578 39.1792 8.95043 39.704 9.59766 39.704H25.7617C26.4088 39.704 26.9334 39.1792 26.9334 38.5321Z" fill="#168821" fill-opacity="0.24"/>
<path d="M9.59766 42.2726C8.95043 42.2726 8.42578 42.7973 8.42578 43.4445C8.42578 44.0916 8.95043 44.6163 9.59766 44.6163H17.2084C17.8556 44.6163 18.3803 44.0916 18.3803 43.4445C18.3803 42.7973 17.8556 42.2726 17.2084 42.2726H9.59766Z" fill="#168821" fill-opacity="0.24"/>
<path d="M0.198985 49.3969C0.553243 49.9286 1.29211 50.0726 1.8232 49.7204C2.3557 49.3672 2.49926 48.6254 2.14664 48.0951C1.79332 47.5635 1.05234 47.4186 0.522422 47.7715C-0.0125387 48.1278 -0.150117 48.8635 0.198985 49.3969Z" fill="#168821" fill-opacity="0.24"/>
</g>
<defs>
<clipPath id="clip0_6061_3435">
<rect width="60" height="60" fill="white"/>
</clipPath>
</defs>
</svg>
