<svg width="50" height="52" viewBox="0 0 50 52" fill="none" xmlns="http://www.w3.org/2000/svg">
<path d="M42.2501 41.1962L36.8659 39.4018L34.933 35.5359C36.6743 33.7635 37.8834 31.4183 38.2911 28.9722L38.5321 27.5273H40.5938C42.4676 27.5273 43.9922 26.0028 43.9922 24.1289V16.9922C43.9922 7.6227 36.3695 0 27 0C17.6065 0 10.0078 7.60083 10.0078 16.9922V24.1289C10.0078 25.6056 10.955 26.8649 12.2734 27.3325V28.6602C12.2734 30.5341 13.798 32.0586 15.6719 32.0586H16.6667C17.1578 33.1254 17.7934 34.1134 18.5669 35.001C18.7273 35.1854 18.8946 35.3641 19.066 35.538L17.1341 39.4018L11.7497 41.1963C5.48925 43.2839 0.945312 49.8745 0.945312 56.8672C0.945312 57.4928 1.45247 58 2.07812 58H51.9219C52.5474 58 53.0547 57.4928 53.0547 56.8672C53.0547 49.8745 48.5109 43.2839 42.2501 41.1962ZM41.7266 24.1289C41.7266 24.7535 41.2184 25.2617 40.5938 25.2617H38.8649C39.1528 23.0312 39.3447 20.6576 39.4219 18.3198C39.4241 18.2539 39.4259 18.1898 39.428 18.125H41.7266V24.1289ZM13.4062 25.2617C12.7816 25.2617 12.2734 24.7535 12.2734 24.1289V18.125H14.5728C14.5766 18.2432 14.5805 18.3619 14.5849 18.4814C14.5851 18.4855 14.5853 18.4894 14.5854 18.4935C14.5854 18.4938 14.5854 18.4942 14.5854 18.4945C14.6647 20.7683 14.8541 23.0803 15.1355 25.2616H13.4062V25.2617ZM15.6719 29.793C15.0472 29.793 14.5391 29.2848 14.5391 28.6602V27.5273H15.4677L15.7088 28.9727C15.7548 29.2474 15.8113 29.5211 15.8767 29.793H15.6719ZM14.541 15.8594H12.3165C12.8903 8.26715 19.2263 2.26562 27 2.26562C34.7391 2.26562 41.1031 8.26636 41.6834 15.8594H39.4591C39.3776 9.60319 34.283 4.53125 28.014 4.53125H25.9862C19.7174 4.53125 14.6224 9.60319 14.541 15.8594ZM25.9861 6.79688H28.0139C33.0899 6.79688 37.1983 10.9487 37.1953 16.0191C37.1953 16.3756 37.1925 16.686 37.1865 16.9684C37.1865 16.972 37.1864 16.9758 37.1864 16.9795L35.7694 16.7771C31.9201 16.2274 28.2856 14.4102 25.5354 11.6599C25.3229 11.4475 25.0348 11.3281 24.7344 11.3281C21.6921 11.3281 18.7799 12.7142 16.8548 15.056C17.3292 10.4433 21.2287 6.79688 25.9861 6.79688ZM18.2252 29.793C17.6581 27.9065 17.0093 22.3557 16.8659 18.7987L18.3905 16.7657C19.7908 14.8993 21.9693 13.7397 24.2867 13.6066C27.3359 16.5084 31.2806 18.4246 35.4491 19.0198L37.1168 19.2582C37.0053 21.624 36.7775 23.9982 36.4512 26.1817C36.4511 26.1824 36.4509 26.1831 36.4508 26.1839C36.3471 26.8859 36.2653 27.3377 36.0564 28.5996C35.4564 32.1979 32.7715 35.4519 29.227 36.3381C27.7683 36.7023 26.2315 36.7022 24.7736 36.3381C22.5604 35.7849 20.5311 34.2535 19.2214 32.0586H21.5308C21.9984 33.3771 23.2575 34.3242 24.7344 34.3242H27C28.8776 34.3242 30.3984 32.8035 30.3984 30.9258C30.3984 29.0519 28.8739 27.5273 27 27.5273H24.7344C23.2247 27.5273 21.9841 28.5025 21.5289 29.793H18.2252ZM24.6391 38.6307C25.4161 38.7944 26.2083 38.8781 27 38.8781C27.6198 38.8781 28.2396 38.8262 28.8525 38.7256L26.8508 40.8425L24.6391 38.6307ZM25.2934 42.4894L21.7004 46.2891C20.7112 44.3957 19.8612 42.4252 19.1641 40.4079L20.5134 37.7093L25.2934 42.4894ZM33.2946 37.3255L34.8357 40.4078C34.1374 42.4285 33.2872 44.3997 32.2991 46.2908L28.4534 42.4451L33.2946 37.3255ZM23.6016 30.9258C23.6016 30.3004 24.1088 29.793 24.7344 29.793H27C27.6246 29.793 28.1328 30.3011 28.1328 30.9258C28.1328 31.5513 27.6254 32.0586 27 32.0586H24.7344C24.1097 32.0586 23.6016 31.5504 23.6016 30.9258ZM3.25625 55.7344C3.70518 50.1225 7.43995 45.0217 12.4662 43.3456L17.2347 41.7565C18.1083 44.1722 19.1906 46.5202 20.459 48.7505C20.4612 48.7543 20.4632 48.7582 20.4654 48.7619L20.4655 48.7621C21.3922 50.3921 22.4353 51.985 23.5662 53.4972L24.9598 55.7344H3.25625ZM27 54.7246L25.4637 52.2581C25.4465 52.2305 25.4281 52.2036 25.4086 52.1776C24.4913 50.9539 23.6355 49.6742 22.8562 48.3643L26.8961 44.092L31.153 48.3489C30.3684 49.6683 29.5097 50.9533 28.5916 52.1773C28.5361 52.2513 28.6148 52.1348 27 54.7246ZM29.0402 55.7344L30.4337 53.4973C31.5695 51.9793 32.6201 50.3737 33.5562 48.7245C33.5618 48.7146 33.5671 48.7044 33.5728 48.6944C33.5735 48.6932 33.5742 48.692 33.5748 48.6908C34.8272 46.4818 35.8981 44.1542 36.7653 41.7565L41.5336 43.3456C46.56 45.0217 50.2948 50.1225 50.7438 55.7344H29.0402Z" fill="#E52207" fill-opacity="0.24"/>
</svg>
