<svg width="10" height="9" viewBox="0 0 10 9" fill="none" xmlns="http://www.w3.org/2000/svg">
<path d="M5.15625 1.0625L9.40625 4.8125C9.51562 4.90625 9.51562 5.0625 9.4375 5.17188C9.34375 5.28125 9.1875 5.28125 9.07812 5.1875L8.5 4.67188V7.75C8.5 8.45312 7.9375 9 7.25 9H2.75C2.04688 9 1.5 8.45312 1.5 7.75V4.67188L0.90625 5.1875C0.8125 5.28125 0.640625 5.28125 0.5625 5.17188C0.46875 5.0625 0.46875 4.90625 0.578125 4.8125L4.82812 1.0625C4.92188 0.984375 5.0625 0.984375 5.15625 1.0625ZM2 7.75C2 8.17188 2.32812 8.5 2.75 8.5H4.78125L4.03125 7.39062C3.95312 7.28125 3.98438 7.125 4.10938 7.04688L5.34375 6.21875L4.0625 4.9375C3.96875 4.84375 3.96875 4.67188 4.0625 4.57812C4.15625 4.48438 4.32812 4.48438 4.42188 4.57812L5.92188 6.07812C5.96875 6.14062 6 6.20312 5.98438 6.28125C5.98438 6.35938 5.9375 6.42188 5.875 6.46875L4.59375 7.32812L5.375 8.5H7.25C7.65625 8.5 8 8.17188 8 7.75V4.23438L5 1.59375L2 4.23438V7.75Z" fill="#008480"/>
</svg>
