<svg width="52" height="50" viewBox="0 0 52 50" fill="none" xmlns="http://www.w3.org/2000/svg">
<g clip-path="url(#clip0_6061_3508)">
<path d="M47.2975 48.0989C46.8042 47.68 46.0646 47.7404 45.6458 48.2337C45.2269 48.727 45.2872 49.4665 45.7806 49.8854C46.274 50.3044 47.0135 50.2439 47.4324 49.7507C47.8511 49.2573 47.7908 48.5177 47.2975 48.0989Z" fill="#155BCB" fill-opacity="0.24"/>
<path d="M58.5498 26.1545C58.5459 25.8324 58.4064 25.5192 58.1686 25.3015L51.563 19.271C51.5463 19.2557 51.5284 19.2423 51.511 19.2281V8.19962C51.511 7.55111 50.9853 7.02541 50.3368 7.02541H38.1493C38.1471 7.02341 38.1453 7.02107 38.1431 7.01908L30.7916 0.307046C30.3432 -0.10229 29.6566 -0.102407 29.2082 0.307046L21.8497 7.02541H9.66313C9.01473 7.02541 8.48891 7.55111 8.48891 8.19962V19.2281C8.47145 19.2423 8.45363 19.2557 8.43688 19.271L1.83137 25.3015C1.5902 25.5208 1.44922 25.843 1.44922 26.1686V56.7096C1.44922 58.5239 2.92531 60 4.73949 60H55.2604C57.0746 60 58.5507 58.524 58.5507 56.7096V26.1687C58.5507 26.1639 58.5498 26.1593 58.5498 26.1545ZM21.2588 40.5871L3.79754 55.8913V28.4181L21.2588 40.5871ZM23.2435 41.9701L29.3286 46.2109C29.732 46.492 30.268 46.492 30.6713 46.2109L36.7564 41.9701L41.8003 46.3909C42.023 46.5861 42.2989 46.682 42.5737 46.682C42.9002 46.682 43.2252 46.5465 43.4572 46.2818C43.8846 45.7942 43.8358 45.0523 43.3481 44.6249L38.7411 40.5871L56.2024 28.4181V55.8914L51.2796 51.5767C50.7918 51.1493 50.0502 51.1981 49.6225 51.6858C49.1952 52.1734 49.2439 52.9153 49.7316 53.3427L54.648 57.6518H5.3518L23.2435 41.9701ZM55.5001 26.0452L51.5109 28.8252V22.4033L55.5001 26.0452ZM30 2.76412L34.6673 7.02552H25.3325L30 2.76412ZM49.1627 9.37384V30.4619L30 43.8164L10.8372 30.4619V9.37384H49.1627ZM8.48891 22.4033V28.8252L4.49984 26.0452L8.48891 22.4033Z" fill="#155BCB" fill-opacity="0.24"/>
<path d="M21.1522 33.9923H38.848C40.0432 33.9923 41.1136 33.3744 41.7112 32.3393C42.3088 31.3041 42.3089 30.0682 41.7113 29.0329L32.8634 13.708C32.2657 12.6729 31.1953 12.0548 30.0001 12.0548C28.8049 12.0548 27.7344 12.6727 27.1369 13.708L18.289 29.0331C17.6913 30.0682 17.6915 31.3041 18.2891 32.3393C18.8867 33.3744 19.9571 33.9923 21.1522 33.9923ZM20.3227 30.2072L29.1706 14.8822C29.4202 14.4499 29.8338 14.4032 30.0001 14.4032C30.1664 14.4032 30.5801 14.4499 30.8297 14.8822L39.6776 30.2072C39.9271 30.6395 39.7606 31.0211 39.6775 31.1652C39.5944 31.3092 39.3471 31.6441 38.848 31.6441H21.1522C20.6531 31.6441 20.4059 31.3092 20.3228 31.1652C20.2396 31.021 20.0732 30.6395 20.3227 30.2072Z" fill="#155BCB" fill-opacity="0.24"/>
<path d="M30 29.8955C30.6472 29.8955 31.1719 29.3708 31.1719 28.7236C31.1719 28.0764 30.6472 27.5518 30 27.5518C29.3528 27.5518 28.8281 28.0764 28.8281 28.7236C28.8281 29.3708 29.3528 29.8955 30 29.8955Z" fill="#155BCB" fill-opacity="0.24"/>
<path d="M30.0004 25.8429C30.6488 25.8429 31.1746 25.3172 31.1746 24.6687V19.8434C31.1746 19.1949 30.6489 18.6692 30.0004 18.6692C29.3519 18.6692 28.8262 19.1949 28.8262 19.8434V24.6687C28.8262 25.3174 29.352 25.8429 30.0004 25.8429Z" fill="#155BCB" fill-opacity="0.24"/>
</g>
<defs>
<clipPath id="clip0_6061_3508">
<rect width="60" height="60" fill="white"/>
</clipPath>
</defs>
</svg>
