<svg width="8" height="8" viewBox="0 0 8 8" fill="none" xmlns="http://www.w3.org/2000/svg">
<path d="M4.125 0.046875L7.875 2.29688C7.95312 2.34375 8 2.42188 8 2.5V7.75C8 7.89062 7.875 8 7.75 8C7.60938 8 7.5 7.89062 7.5 7.75V2.65625L4 0.546875L0.5 2.65625V7.75C0.5 7.89062 0.375 8 0.25 8C0.109375 8 0 7.89062 0 7.75V2.5C0 2.42188 0.03125 2.34375 0.109375 2.29688L3.85938 0.046875C3.9375 0 4.04688 0 4.125 0.046875ZM3.75 2.625C3.75 2.76562 3.85938 2.875 4 2.875C4.125 2.875 4.25 2.76562 4.25 2.625C4.25 2.5 4.125 2.375 4 2.375C3.85938 2.375 3.75 2.5 3.75 2.625ZM4.75 2.625C4.75 2.90625 4.59375 3.14062 4.375 3.28125C4.14062 3.42188 3.84375 3.42188 3.625 3.28125C3.39062 3.14062 3.25 2.90625 3.25 2.625C3.25 2.35938 3.39062 2.125 3.625 1.98438C3.84375 1.84375 4.14062 1.84375 4.375 1.98438C4.59375 2.125 4.75 2.35938 4.75 2.625ZM3.625 4.15625V5.75H4.375V4.15625C4.3125 4.14062 4.25 4.125 4.1875 4.125H3.79688C3.73438 4.125 3.67188 4.14062 3.625 4.15625ZM3.625 6.25V7.75C3.625 7.89062 3.5 8 3.375 8C3.23438 8 3.125 7.89062 3.125 7.75V4.5625L2.45312 5.64062C2.39062 5.75 2.23438 5.79688 2.10938 5.71875C2 5.64062 1.95312 5.5 2.03125 5.375L2.73438 4.23438C2.96875 3.85938 3.375 3.625 3.79688 3.625H4.1875C4.625 3.625 5.01562 3.85938 5.25 4.23438L5.95312 5.375C6.03125 5.5 5.98438 5.64062 5.875 5.71875C5.75 5.79688 5.60938 5.75 5.53125 5.64062L4.875 4.5625V7.75C4.875 7.89062 4.75 8 4.625 8C4.48438 8 4.375 7.89062 4.375 7.75V6.25H3.625Z" fill="#008480"/>
</svg>
